<svg width="158" height="158" viewBox="0 0 158 158" fill="none" xmlns="http://www.w3.org/2000/svg">
<path d="M119.181 83.8811L119.347 66.7375L119.35 66.4171L119.037 66.3442L118.947 66.7337C119.028 66.3824 119.036 66.3479 119.036 66.3443L119.034 66.3437C119.032 66.3434 119.031 66.343 119.029 66.3426C119.024 66.3416 119.018 66.34 119.011 66.3386C118.997 66.3357 118.978 66.3321 118.953 66.3276C118.903 66.3187 118.831 66.3066 118.737 66.2947C118.55 66.2709 118.274 66.2457 117.911 66.237C117.186 66.2196 116.109 66.2692 114.677 66.5273C111.813 67.0437 107.532 68.3962 101.795 71.7251C90.58 78.2334 73.7863 92.3033 51.1153 122.491C51.6582 121.05 52.4821 119.023 53.647 116.554C56.0798 111.396 59.9946 104.309 65.9194 96.6012C77.6761 81.3071 97.35 63.5677 129.077 53.6118L119.181 83.8811Z" fill="url(#paint0_linear_5056_9783)" stroke="url(#paint1_linear_5056_9783)" stroke-width="0.8"/>
<path d="M75.9345 101.992C83.7468 97.2921 93.0363 93.6599 103.346 93.3045C112.756 92.9801 123.039 95.3852 133.856 102.236C132.973 101.938 131.93 101.616 130.736 101.297C126.462 100.156 120.247 99.0506 112.469 99.1854C97.4211 99.4462 76.5476 104.346 52.5656 122.55C53.709 121.142 55.3464 119.224 57.4286 117.038C61.7997 112.451 68.1221 106.691 75.9345 101.992Z" fill="url(#paint2_linear_5056_9783)" stroke="url(#paint3_linear_5056_9783)" stroke-width="0.8"/>
<path d="M72.2178 115.795C87.1919 111.201 110.561 107.084 144.114 109.014L157.149 124.736H51.71C51.7747 124.693 51.8421 124.647 51.9131 124.602C52.7596 124.057 54.0479 123.281 55.8057 122.36C59.3217 120.517 64.7176 118.096 72.2178 115.795Z" fill="url(#paint4_linear_5056_9783)" stroke="url(#paint5_linear_5056_9783)" stroke-width="0.8"/>
<path d="M68.8893 41.8777C74.3731 55.6459 73.7608 67.8526 70.8007 77.0851C69.307 81.7439 67.2157 85.6439 65.0101 88.6044C64.5214 89.2603 64.0263 89.8675 63.5335 90.4272C65.2649 88.2537 67.2152 85.3303 68.8498 81.6629C72.7967 72.8079 74.8891 59.6542 67.7095 42.3271L68.8893 41.8777Z" fill="url(#paint6_linear_5056_9783)" stroke="url(#paint7_linear_5056_9783)" stroke-width="0.8"/>
<path fill-rule="evenodd" clip-rule="evenodd" d="M26.0169 89.4523C42.9366 94.2592 51.9919 100.823 53.1828 109.143C65.8924 96.8936 69.8421 78.1441 63.1509 61.8215C56.4601 45.4984 40 24.4707 22.8199 35.0729C13.1288 41.0536 7.504 51.8614 8.1715 63.2182C8.83939 74.5749 15.6919 84.6487 26.0169 89.4523Z" fill="url(#paint8_linear_5056_9783)"/>
<path d="M29.9212 94.9335C39.7073 94.5972 48.7143 100.205 52.7281 109.108C46.6087 118.478 34.6807 123.164 24.6125 123.339C19.5485 123.427 15.0136 122.373 11.9542 120.255C10.4288 119.199 9.27578 117.883 8.59546 116.315C7.91577 114.748 7.69745 112.906 8.07975 110.778L8.08396 110.754L8.08512 110.727C8.36614 105.079 11.3243 101.233 15.4616 98.7395C19.6146 96.2366 24.9522 95.1042 29.9212 94.9335Z" fill="url(#paint9_linear_5056_9783)" stroke="url(#paint10_linear_5056_9783)" stroke-width="0.8"/>
<path d="M91.6474 61.0068C77.2045 69.7231 68.4792 81.1714 64.3061 91.4094L64.2733 91.4036C68.7261 80.2236 77.2741 67.5341 91.3392 59.644L91.6474 61.0068Z" fill="url(#paint11_linear_5056_9783)" stroke="url(#paint12_linear_5056_9783)" stroke-width="0.8"/>
<path d="M26.7107 93.4049C37.8325 93.0225 48.0685 99.4011 52.6205 109.526C45.678 120.181 32.1291 125.504 20.6977 125.703C14.9522 125.803 9.8006 124.607 6.32095 122.198C4.58548 120.997 3.27144 119.498 2.49586 117.71C1.72093 115.924 1.47326 113.826 1.90813 111.406L1.91227 111.38L1.9135 111.354C2.23294 104.933 5.59672 100.559 10.2977 97.7254C15.0147 94.8826 21.0738 93.5985 26.7107 93.4049Z" stroke="url(#paint13_linear_5056_9783)" stroke-width="0.8"/>
<defs>
<linearGradient id="paint0_linear_5056_9783" x1="85.0055" y1="60.5411" x2="94.5792" y2="117.265" gradientUnits="userSpaceOnUse">
<stop offset="1" stop-color="#67A1A5"/>
</linearGradient>
<linearGradient id="paint1_linear_5056_9783" x1="85.0055" y1="60.5411" x2="94.5792" y2="117.265" gradientUnits="userSpaceOnUse">
<stop stop-color="#67A1A5"/>
</linearGradient>
<linearGradient id="paint2_linear_5056_9783" x1="91.333" y1="94.1651" x2="94.371" y2="119.511" gradientUnits="userSpaceOnUse">
<stop offset="1" stop-color="#67A1A5"/>
</linearGradient>
<linearGradient id="paint3_linear_5056_9783" x1="91.333" y1="94.1651" x2="94.371" y2="119.511" gradientUnits="userSpaceOnUse">
<stop stop-color="#67A1A5"/>
</linearGradient>
<linearGradient id="paint4_linear_5056_9783" x1="104.213" y1="108.126" x2="104.213" y2="125.136" gradientUnits="userSpaceOnUse">
<stop offset="1" stop-color="#67A1A5"/>
</linearGradient>
<linearGradient id="paint5_linear_5056_9783" x1="104.213" y1="108.126" x2="104.213" y2="125.136" gradientUnits="userSpaceOnUse">
<stop stop-color="#67A1A5"/>
</linearGradient>
<linearGradient id="paint6_linear_5056_9783" x1="78.5163" y1="47.9298" x2="50.0244" y2="88.7305" gradientUnits="userSpaceOnUse">
<stop offset="1" stop-color="#67A1A5"/>
</linearGradient>
<linearGradient id="paint7_linear_5056_9783" x1="78.5163" y1="47.9298" x2="50.0244" y2="88.7305" gradientUnits="userSpaceOnUse">
<stop stop-color="#67A1A5"/>
</linearGradient>
<linearGradient id="paint8_linear_5056_9783" x1="34.8113" y1="33.2633" x2="39.9534" y2="110.029" gradientUnits="userSpaceOnUse">
<stop offset="1" stop-color="#67A1A5"/>
</linearGradient>
<linearGradient id="paint9_linear_5056_9783" x1="29.2272" y1="94.5582" x2="31.1554" y2="123.344" gradientUnits="userSpaceOnUse">
<stop offset="1" stop-color="#67A1A5"/>
</linearGradient>
<linearGradient id="paint10_linear_5056_9783" x1="29.2272" y1="94.5582" x2="31.1554" y2="123.344" gradientUnits="userSpaceOnUse">
<stop stop-color="#67A1A5"/>
</linearGradient>
<linearGradient id="paint11_linear_5056_9783" x1="82.2062" y1="56.8055" x2="72.0275" y2="99.7413" gradientUnits="userSpaceOnUse">
<stop offset="1" stop-color="#67A1A5"/>
</linearGradient>
<linearGradient id="paint12_linear_5056_9783" x1="82.2062" y1="56.8055" x2="72.0275" y2="99.7413" gradientUnits="userSpaceOnUse">
<stop stop-color="#67A1A5"/>
</linearGradient>
<linearGradient id="paint13_linear_5056_9783" x1="25.9264" y1="93.0326" x2="28.1116" y2="125.656" gradientUnits="userSpaceOnUse">
<stop stop-color="#67A1A5"/>
</linearGradient>
</defs>
</svg>
